# xmcd
#
# Track frame offsets:
#	150
#	13120
#	25376
#	42579
#	65662
#	80596
#	90034
#	110137
#	128815
#	139364
#	152508
#	169798
#	176070
#	194351
#	206955
#	217377
#	230923
#	243505
#
# Disc length: 3436 seconds
# Revision: 0
# Processed by: cddbd v1.5.2PL0 Copyright (c) Steve Scherf et al.
# Submitted via: dBpowerAMP V12.0
#
DISCID=140d6a12
DTITLE=Various Artist - Tunes from David Holt's State of Music 2
DYEAR=2017
DGENRE=Folk
TTITLE0=David Holt and Josh Goforth - Greasy Greens
TTITLE1=Rhiannon Giddens, Dirk Powell and Jason Sypher - West End Blues
TTITLE2=Steep Canyon Rangers - Monumental Fool
TTITLE3=The Kruger Brothers - Watches the Clouds Roll By
TTITLE4=Balsam Rangers - Last Train to Kitty Hawk
TTITLE5=Doyle Lawson and Quicksilver - Brother Have You Heard
TTITLE6=Mipso - Louise
TTITLE7=Laurelyn Dossett - Leaving Eden
TTITLE8=Dom Flemons - Your Baby Ain't Sweet Like Mine
TTITLE9=Wayne Henderson, Jeff Little and David Holt - Roll On Buddy
TTITLE10=Rhiannon Giddens, Dirk Powell and Jason Sypher - Shake Sugaree
TTITLE11=David Holt and Josh Goforth - I Don't Love Nobody
TTITLE12=Amythyst Kiah - Darling Corey
TTITLE13=Rayna Gellert - Swannanoa Waltz
TTITLE14=Alice Gerrard - Calling Me Home
TTITLE15=The Branchettes - If It Wasn't for the Lord
TTITLE16=Josh Goforth, Tim Suirrett and David Holt - Sittin' On Top of the World
TTITLE17=St. John AME Zion Unity Choir - Take Me Back
EXTD=
EXTT0=
EXTT1=
EXTT2=
EXTT3=
EXTT4=
EXTT5=
EXTT6=
EXTT7=
EXTT8=
EXTT9=
EXTT10=
EXTT11=
EXTT12=
EXTT13=
EXTT14=
EXTT15=
EXTT16=
EXTT17=
PLAYORDER=
